<mxfile host="app.diagrams.net" modified="2021-03-30T01:31:59.647Z" agent="5.0 (Windows NT 10.0; Win64; x64) AppleWebKit/537.36 (KHTML, like Gecko) Chrome/87.0.4280.141 Safari/537.36" etag="I_Wkqcio0mtqeQ453xgt" version="14.5.1" type="github" pages="5">
  <diagram id="VJk90yhF6w4febO4rjMB" name="分账设置">
    <mxGraphModel dx="1550" dy="868" grid="1" gridSize="10" guides="1" tooltips="1" connect="1" arrows="1" fold="1" page="1" pageScale="1" pageWidth="827" pageHeight="1169" math="0" shadow="0">
      <root>
        <mxCell id="0" />
        <mxCell id="1" parent="0" />
        <mxCell id="x3GzkR1m3sSDTiWkfUNm-2" value="merchants" style="swimlane;fontStyle=0;childLayout=stackLayout;horizontal=1;startSize=26;fillColor=none;horizontalStack=0;resizeParent=1;resizeParentMax=0;resizeLast=0;collapsible=1;marginBottom=0;" parent="1" vertex="1">
          <mxGeometry x="120" y="220" width="210" height="78" as="geometry">
            <mxRectangle x="120" y="220" width="90" height="26" as="alternateBounds" />
          </mxGeometry>
        </mxCell>
        <mxCell id="x3GzkR1m3sSDTiWkfUNm-4" value="+ ...: type" style="text;strokeColor=none;fillColor=none;align=left;verticalAlign=top;spacingLeft=4;spacingRight=4;overflow=hidden;rotatable=0;points=[[0,0.5],[1,0.5]];portConstraint=eastwest;" parent="x3GzkR1m3sSDTiWkfUNm-2" vertex="1">
          <mxGeometry y="26" width="210" height="26" as="geometry" />
        </mxCell>
        <mxCell id="x3GzkR1m3sSDTiWkfUNm-5" value="+ profit_sharing_person_id: Long" style="text;strokeColor=none;fillColor=none;align=left;verticalAlign=top;spacingLeft=4;spacingRight=4;overflow=hidden;rotatable=0;points=[[0,0.5],[1,0.5]];portConstraint=eastwest;" parent="x3GzkR1m3sSDTiWkfUNm-2" vertex="1">
          <mxGeometry y="52" width="210" height="26" as="geometry" />
        </mxCell>
        <mxCell id="x3GzkR1m3sSDTiWkfUNm-6" value="store" style="swimlane;fontStyle=0;childLayout=stackLayout;horizontal=1;startSize=26;fillColor=none;horizontalStack=0;resizeParent=1;resizeParentMax=0;resizeLast=0;collapsible=1;marginBottom=0;" parent="1" vertex="1">
          <mxGeometry x="170" y="400" width="140" height="78" as="geometry" />
        </mxCell>
        <mxCell id="x3GzkR1m3sSDTiWkfUNm-7" value="+ ...: type" style="text;strokeColor=none;fillColor=none;align=left;verticalAlign=top;spacingLeft=4;spacingRight=4;overflow=hidden;rotatable=0;points=[[0,0.5],[1,0.5]];portConstraint=eastwest;" parent="x3GzkR1m3sSDTiWkfUNm-6" vertex="1">
          <mxGeometry y="26" width="140" height="26" as="geometry" />
        </mxCell>
        <mxCell id="x3GzkR1m3sSDTiWkfUNm-9" value="+ profit_sharing_id: Long" style="text;strokeColor=none;fillColor=none;align=left;verticalAlign=top;spacingLeft=4;spacingRight=4;overflow=hidden;rotatable=0;points=[[0,0.5],[1,0.5]];portConstraint=eastwest;" parent="x3GzkR1m3sSDTiWkfUNm-6" vertex="1">
          <mxGeometry y="52" width="140" height="26" as="geometry" />
        </mxCell>
        <mxCell id="x3GzkR1m3sSDTiWkfUNm-10" value="profitSharingPerson" style="swimlane;fontStyle=0;childLayout=stackLayout;horizontal=1;startSize=26;fillColor=none;horizontalStack=0;resizeParent=1;resizeParentMax=0;resizeLast=0;collapsible=1;marginBottom=0;" parent="1" vertex="1">
          <mxGeometry x="520" y="296" width="140" height="104" as="geometry" />
        </mxCell>
        <mxCell id="x3GzkR1m3sSDTiWkfUNm-12" value="+ type: Sting" style="text;strokeColor=none;fillColor=none;align=left;verticalAlign=top;spacingLeft=4;spacingRight=4;overflow=hidden;rotatable=0;points=[[0,0.5],[1,0.5]];portConstraint=eastwest;" parent="x3GzkR1m3sSDTiWkfUNm-10" vertex="1">
          <mxGeometry y="26" width="140" height="26" as="geometry" />
        </mxCell>
        <mxCell id="x3GzkR1m3sSDTiWkfUNm-11" value="+ accountId: String" style="text;strokeColor=none;fillColor=none;align=left;verticalAlign=top;spacingLeft=4;spacingRight=4;overflow=hidden;rotatable=0;points=[[0,0.5],[1,0.5]];portConstraint=eastwest;" parent="x3GzkR1m3sSDTiWkfUNm-10" vertex="1">
          <mxGeometry y="52" width="140" height="26" as="geometry" />
        </mxCell>
        <mxCell id="x3GzkR1m3sSDTiWkfUNm-13" value="+ ....: type" style="text;strokeColor=none;fillColor=none;align=left;verticalAlign=top;spacingLeft=4;spacingRight=4;overflow=hidden;rotatable=0;points=[[0,0.5],[1,0.5]];portConstraint=eastwest;" parent="x3GzkR1m3sSDTiWkfUNm-10" vertex="1">
          <mxGeometry y="78" width="140" height="26" as="geometry" />
        </mxCell>
        <mxCell id="x3GzkR1m3sSDTiWkfUNm-14" value="" style="endArrow=diamondThin;endFill=0;endSize=24;html=1;entryX=1;entryY=-0.023;entryDx=0;entryDy=0;entryPerimeter=0;exitX=-0.006;exitY=0.008;exitDx=0;exitDy=0;exitPerimeter=0;" parent="1" source="x3GzkR1m3sSDTiWkfUNm-12" target="x3GzkR1m3sSDTiWkfUNm-5" edge="1">
          <mxGeometry width="160" relative="1" as="geometry">
            <mxPoint x="350" y="430" as="sourcePoint" />
            <mxPoint x="490" y="440" as="targetPoint" />
          </mxGeometry>
        </mxCell>
        <mxCell id="x3GzkR1m3sSDTiWkfUNm-15" value="" style="endArrow=diamondThin;endFill=0;endSize=24;html=1;entryX=1;entryY=0.5;entryDx=0;entryDy=0;exitX=0;exitY=0.5;exitDx=0;exitDy=0;" parent="1" source="x3GzkR1m3sSDTiWkfUNm-12" target="x3GzkR1m3sSDTiWkfUNm-9" edge="1">
          <mxGeometry width="160" relative="1" as="geometry">
            <mxPoint x="470" y="420" as="sourcePoint" />
            <mxPoint x="490" y="440" as="targetPoint" />
          </mxGeometry>
        </mxCell>
      </root>
    </mxGraphModel>
  </diagram>
  <diagram id="v61C1puZZ5cYjeaZg9-L" name="分账">
    <mxGraphModel dx="1550" dy="868" grid="1" gridSize="10" guides="1" tooltips="1" connect="1" arrows="1" fold="1" page="1" pageScale="1" pageWidth="827" pageHeight="1169" math="0" shadow="0">
      <root>
        <mxCell id="Tlicw1NHRIB-_um3vUYq-0" />
        <mxCell id="Tlicw1NHRIB-_um3vUYq-1" parent="Tlicw1NHRIB-_um3vUYq-0" />
        <mxCell id="Tlicw1NHRIB-_um3vUYq-9" value="" style="ellipse;html=1;shape=startState;fillColor=#000000;strokeColor=#ff0000;" parent="Tlicw1NHRIB-_um3vUYq-1" vertex="1">
          <mxGeometry x="399" y="40" width="30" height="30" as="geometry" />
        </mxCell>
        <mxCell id="Tlicw1NHRIB-_um3vUYq-10" value="" style="edgeStyle=orthogonalEdgeStyle;html=1;verticalAlign=bottom;endArrow=open;endSize=8;strokeColor=#ff0000;" parent="Tlicw1NHRIB-_um3vUYq-1" source="Tlicw1NHRIB-_um3vUYq-9" edge="1">
          <mxGeometry relative="1" as="geometry">
            <mxPoint x="414" y="130" as="targetPoint" />
          </mxGeometry>
        </mxCell>
        <mxCell id="Tlicw1NHRIB-_um3vUYq-11" value="订单支付成功后" style="rounded=1;whiteSpace=wrap;html=1;arcSize=40;fontColor=#000000;fillColor=#ffffc0;strokeColor=#ff0000;" parent="Tlicw1NHRIB-_um3vUYq-1" vertex="1">
          <mxGeometry x="354" y="100" width="120" height="40" as="geometry" />
        </mxCell>
        <mxCell id="Tlicw1NHRIB-_um3vUYq-12" value="" style="edgeStyle=orthogonalEdgeStyle;html=1;verticalAlign=bottom;endArrow=open;endSize=8;strokeColor=#ff0000;" parent="Tlicw1NHRIB-_um3vUYq-1" source="Tlicw1NHRIB-_um3vUYq-11" target="Tlicw1NHRIB-_um3vUYq-17" edge="1">
          <mxGeometry relative="1" as="geometry">
            <mxPoint x="420" y="230" as="targetPoint" />
          </mxGeometry>
        </mxCell>
        <mxCell id="Tlicw1NHRIB-_um3vUYq-13" value="查询商户和门店的分账设置" style="rounded=1;whiteSpace=wrap;html=1;arcSize=40;fontColor=#000000;fillColor=#ffffc0;strokeColor=#ff0000;" parent="Tlicw1NHRIB-_um3vUYq-1" vertex="1">
          <mxGeometry x="360" y="330" width="120" height="40" as="geometry" />
        </mxCell>
        <mxCell id="Tlicw1NHRIB-_um3vUYq-14" value="" style="edgeStyle=orthogonalEdgeStyle;html=1;verticalAlign=bottom;endArrow=open;endSize=8;strokeColor=#ff0000;" parent="Tlicw1NHRIB-_um3vUYq-1" source="Tlicw1NHRIB-_um3vUYq-13" edge="1">
          <mxGeometry relative="1" as="geometry">
            <mxPoint x="420" y="410" as="targetPoint" />
          </mxGeometry>
        </mxCell>
        <mxCell id="Tlicw1NHRIB-_um3vUYq-15" value="计算分账金额" style="rounded=1;whiteSpace=wrap;html=1;arcSize=40;fontColor=#000000;fillColor=#ffffc0;strokeColor=#ff0000;" parent="Tlicw1NHRIB-_um3vUYq-1" vertex="1">
          <mxGeometry x="360" y="630" width="120" height="40" as="geometry" />
        </mxCell>
        <mxCell id="Tlicw1NHRIB-_um3vUYq-16" value="" style="edgeStyle=orthogonalEdgeStyle;html=1;verticalAlign=bottom;endArrow=open;endSize=8;strokeColor=#ff0000;" parent="Tlicw1NHRIB-_um3vUYq-1" source="Tlicw1NHRIB-_um3vUYq-15" edge="1">
          <mxGeometry relative="1" as="geometry">
            <mxPoint x="420" y="700" as="targetPoint" />
          </mxGeometry>
        </mxCell>
        <mxCell id="Tlicw1NHRIB-_um3vUYq-17" value="判断是否是分账订单" style="rhombus;whiteSpace=wrap;html=1;fillColor=#ffffc0;strokeColor=#ff0000;" parent="Tlicw1NHRIB-_um3vUYq-1" vertex="1">
          <mxGeometry x="374" y="180" width="80" height="40" as="geometry" />
        </mxCell>
        <mxCell id="Tlicw1NHRIB-_um3vUYq-18" value="no" style="edgeStyle=orthogonalEdgeStyle;html=1;align=left;verticalAlign=bottom;endArrow=open;endSize=8;strokeColor=#ff0000;" parent="Tlicw1NHRIB-_um3vUYq-1" source="Tlicw1NHRIB-_um3vUYq-17" target="Tlicw1NHRIB-_um3vUYq-20" edge="1">
          <mxGeometry x="-1" relative="1" as="geometry">
            <mxPoint x="560" y="230" as="targetPoint" />
          </mxGeometry>
        </mxCell>
        <mxCell id="Tlicw1NHRIB-_um3vUYq-19" value="yes" style="edgeStyle=orthogonalEdgeStyle;html=1;align=left;verticalAlign=top;endArrow=open;endSize=8;strokeColor=#ff0000;" parent="Tlicw1NHRIB-_um3vUYq-1" source="Tlicw1NHRIB-_um3vUYq-17" edge="1">
          <mxGeometry x="-1" relative="1" as="geometry">
            <mxPoint x="414" y="265" as="targetPoint" />
            <Array as="points">
              <mxPoint x="414" y="250" />
              <mxPoint x="414" y="250" />
            </Array>
          </mxGeometry>
        </mxCell>
        <mxCell id="Tlicw1NHRIB-_um3vUYq-20" value="" style="ellipse;html=1;shape=endState;fillColor=#000000;strokeColor=#ff0000;" parent="Tlicw1NHRIB-_um3vUYq-1" vertex="1">
          <mxGeometry x="710" y="1210" width="30" height="30" as="geometry" />
        </mxCell>
        <mxCell id="Tlicw1NHRIB-_um3vUYq-21" value="判断是否存在分账用户" style="rhombus;whiteSpace=wrap;html=1;fillColor=#ffffc0;strokeColor=#ff0000;" parent="Tlicw1NHRIB-_um3vUYq-1" vertex="1">
          <mxGeometry x="380" y="410" width="80" height="40" as="geometry" />
        </mxCell>
        <mxCell id="Tlicw1NHRIB-_um3vUYq-22" value="no" style="edgeStyle=orthogonalEdgeStyle;html=1;align=left;verticalAlign=bottom;endArrow=open;endSize=8;strokeColor=#ff0000;" parent="Tlicw1NHRIB-_um3vUYq-1" source="Tlicw1NHRIB-_um3vUYq-21" edge="1">
          <mxGeometry x="-1" relative="1" as="geometry">
            <mxPoint x="530" y="430" as="targetPoint" />
          </mxGeometry>
        </mxCell>
        <mxCell id="Tlicw1NHRIB-_um3vUYq-23" value="yes" style="edgeStyle=orthogonalEdgeStyle;html=1;align=left;verticalAlign=top;endArrow=open;endSize=8;strokeColor=#ff0000;" parent="Tlicw1NHRIB-_um3vUYq-1" source="Tlicw1NHRIB-_um3vUYq-21" edge="1">
          <mxGeometry x="-1" relative="1" as="geometry">
            <mxPoint x="420" y="480" as="targetPoint" />
          </mxGeometry>
        </mxCell>
        <mxCell id="Tlicw1NHRIB-_um3vUYq-24" value="完结分账" style="rounded=1;whiteSpace=wrap;html=1;arcSize=40;fontColor=#000000;fillColor=#ffffc0;strokeColor=#ff0000;" parent="Tlicw1NHRIB-_um3vUYq-1" vertex="1">
          <mxGeometry x="520" y="410" width="120" height="40" as="geometry" />
        </mxCell>
        <mxCell id="Tlicw1NHRIB-_um3vUYq-25" value="" style="edgeStyle=orthogonalEdgeStyle;html=1;verticalAlign=bottom;endArrow=open;endSize=8;strokeColor=#ff0000;entryX=1;entryY=0.5;entryDx=0;entryDy=0;" parent="Tlicw1NHRIB-_um3vUYq-1" source="Tlicw1NHRIB-_um3vUYq-24" target="Tlicw1NHRIB-_um3vUYq-40" edge="1">
          <mxGeometry relative="1" as="geometry">
            <mxPoint x="580" y="970" as="targetPoint" />
            <Array as="points">
              <mxPoint x="580" y="930" />
              <mxPoint x="480" y="930" />
            </Array>
          </mxGeometry>
        </mxCell>
        <mxCell id="Tlicw1NHRIB-_um3vUYq-26" value="调用单次分账" style="rounded=1;whiteSpace=wrap;html=1;arcSize=40;fontColor=#000000;fillColor=#ffffc0;strokeColor=#ff0000;" parent="Tlicw1NHRIB-_um3vUYq-1" vertex="1">
          <mxGeometry x="354" y="760" width="120" height="40" as="geometry" />
        </mxCell>
        <mxCell id="Tlicw1NHRIB-_um3vUYq-27" value="" style="edgeStyle=orthogonalEdgeStyle;html=1;verticalAlign=bottom;endArrow=open;endSize=8;strokeColor=#ff0000;entryX=0.5;entryY=0;entryDx=0;entryDy=0;" parent="Tlicw1NHRIB-_um3vUYq-1" source="Tlicw1NHRIB-_um3vUYq-26" edge="1" target="Tlicw1NHRIB-_um3vUYq-34">
          <mxGeometry relative="1" as="geometry">
            <mxPoint x="420" y="820" as="targetPoint" />
          </mxGeometry>
        </mxCell>
        <mxCell id="Tlicw1NHRIB-_um3vUYq-34" value="判断是否调用成功" style="rhombus;whiteSpace=wrap;html=1;fillColor=#ffffc0;strokeColor=#ff0000;" parent="Tlicw1NHRIB-_um3vUYq-1" vertex="1">
          <mxGeometry x="374" y="830" width="80" height="40" as="geometry" />
        </mxCell>
        <mxCell id="Tlicw1NHRIB-_um3vUYq-35" value="no" style="edgeStyle=orthogonalEdgeStyle;html=1;align=left;verticalAlign=bottom;endArrow=open;endSize=8;strokeColor=#ff0000;entryX=0;entryY=0.5;entryDx=0;entryDy=0;" parent="Tlicw1NHRIB-_um3vUYq-1" source="Tlicw1NHRIB-_um3vUYq-34" target="wTOdMPcLrnVWkFZVqrNw-0" edge="1">
          <mxGeometry x="-1" relative="1" as="geometry">
            <mxPoint x="160" y="710" as="targetPoint" />
            <Array as="points">
              <mxPoint x="160" y="850" />
              <mxPoint x="160" y="500" />
            </Array>
          </mxGeometry>
        </mxCell>
        <mxCell id="67G2TMx_A6V60h_aeA8p-1" value="期间订单如果被退款则需重新计算" style="edgeLabel;html=1;align=center;verticalAlign=middle;resizable=0;points=[];" vertex="1" connectable="0" parent="Tlicw1NHRIB-_um3vUYq-35">
          <mxGeometry x="0.1429" y="-3" relative="1" as="geometry">
            <mxPoint as="offset" />
          </mxGeometry>
        </mxCell>
        <mxCell id="Tlicw1NHRIB-_um3vUYq-36" value="yes" style="edgeStyle=orthogonalEdgeStyle;html=1;align=left;verticalAlign=top;endArrow=open;endSize=8;strokeColor=#ff0000;entryX=0.5;entryY=0;entryDx=0;entryDy=0;" parent="Tlicw1NHRIB-_um3vUYq-1" source="Tlicw1NHRIB-_um3vUYq-34" edge="1" target="Tlicw1NHRIB-_um3vUYq-40">
          <mxGeometry x="-1" y="-10" relative="1" as="geometry">
            <mxPoint x="420" y="840" as="targetPoint" />
            <mxPoint x="10" y="-10" as="offset" />
          </mxGeometry>
        </mxCell>
        <mxCell id="Tlicw1NHRIB-_um3vUYq-40" value="保存分账订单" style="rounded=1;whiteSpace=wrap;html=1;arcSize=40;fontColor=#000000;fillColor=#ffffc0;strokeColor=#ff0000;" parent="Tlicw1NHRIB-_um3vUYq-1" vertex="1">
          <mxGeometry x="360" y="920" width="120" height="40" as="geometry" />
        </mxCell>
        <mxCell id="Tlicw1NHRIB-_um3vUYq-41" value="" style="edgeStyle=orthogonalEdgeStyle;html=1;verticalAlign=bottom;endArrow=open;endSize=8;strokeColor=#ff0000;entryX=0.5;entryY=0;entryDx=0;entryDy=0;" parent="Tlicw1NHRIB-_um3vUYq-1" source="Tlicw1NHRIB-_um3vUYq-40" edge="1" target="Tlicw1NHRIB-_um3vUYq-42">
          <mxGeometry relative="1" as="geometry">
            <mxPoint x="420" y="940" as="targetPoint" />
          </mxGeometry>
        </mxCell>
        <mxCell id="Tlicw1NHRIB-_um3vUYq-42" value="调用分账查询接口" style="rounded=1;whiteSpace=wrap;html=1;arcSize=40;fontColor=#000000;fillColor=#ffffc0;strokeColor=#ff0000;" parent="Tlicw1NHRIB-_um3vUYq-1" vertex="1">
          <mxGeometry x="360" y="990" width="120" height="40" as="geometry" />
        </mxCell>
        <mxCell id="Tlicw1NHRIB-_um3vUYq-43" value="" style="edgeStyle=orthogonalEdgeStyle;html=1;verticalAlign=bottom;endArrow=open;endSize=8;strokeColor=#ff0000;entryX=0.5;entryY=0;entryDx=0;entryDy=0;" parent="Tlicw1NHRIB-_um3vUYq-1" source="Tlicw1NHRIB-_um3vUYq-42" edge="1" target="Tlicw1NHRIB-_um3vUYq-47">
          <mxGeometry relative="1" as="geometry">
            <mxPoint x="420" y="1040" as="targetPoint" />
          </mxGeometry>
        </mxCell>
        <mxCell id="Tlicw1NHRIB-_um3vUYq-47" value="判断分账状态" style="rhombus;whiteSpace=wrap;html=1;fillColor=#ffffc0;strokeColor=#ff0000;" parent="Tlicw1NHRIB-_um3vUYq-1" vertex="1">
          <mxGeometry x="380" y="1060" width="80" height="40" as="geometry" />
        </mxCell>
        <mxCell id="Tlicw1NHRIB-_um3vUYq-48" value="处理中" style="edgeStyle=orthogonalEdgeStyle;html=1;align=left;verticalAlign=bottom;endArrow=open;endSize=8;strokeColor=#ff0000;entryX=1;entryY=0.5;entryDx=0;entryDy=0;" parent="Tlicw1NHRIB-_um3vUYq-1" source="Tlicw1NHRIB-_um3vUYq-47" target="Tlicw1NHRIB-_um3vUYq-42" edge="1">
          <mxGeometry x="-1" relative="1" as="geometry">
            <mxPoint x="560" y="1060" as="targetPoint" />
          </mxGeometry>
        </mxCell>
        <mxCell id="Tlicw1NHRIB-_um3vUYq-49" value="成功" style="edgeStyle=orthogonalEdgeStyle;html=1;align=left;verticalAlign=top;endArrow=open;endSize=8;strokeColor=#ff0000;" parent="Tlicw1NHRIB-_um3vUYq-1" source="Tlicw1NHRIB-_um3vUYq-47" edge="1">
          <mxGeometry x="-1" relative="1" as="geometry">
            <mxPoint x="420" y="1140" as="targetPoint" />
          </mxGeometry>
        </mxCell>
        <mxCell id="Tlicw1NHRIB-_um3vUYq-50" value="更改分账订单状态，保存返回信息" style="rounded=1;whiteSpace=wrap;html=1;arcSize=40;fontColor=#000000;fillColor=#ffffc0;strokeColor=#ff0000;" parent="Tlicw1NHRIB-_um3vUYq-1" vertex="1">
          <mxGeometry x="360" y="1140" width="120" height="40" as="geometry" />
        </mxCell>
        <mxCell id="Tlicw1NHRIB-_um3vUYq-51" value="" style="edgeStyle=orthogonalEdgeStyle;html=1;verticalAlign=bottom;endArrow=open;endSize=8;strokeColor=#ff0000;entryX=0.5;entryY=1;entryDx=0;entryDy=0;" parent="Tlicw1NHRIB-_um3vUYq-1" source="Tlicw1NHRIB-_um3vUYq-50" target="Tlicw1NHRIB-_um3vUYq-20" edge="1">
          <mxGeometry relative="1" as="geometry">
            <mxPoint x="420" y="1240" as="targetPoint" />
            <Array as="points">
              <mxPoint x="430" y="1250" />
              <mxPoint x="725" y="1250" />
            </Array>
          </mxGeometry>
        </mxCell>
        <mxCell id="wTOdMPcLrnVWkFZVqrNw-0" value="查询待分账金额" style="rounded=1;whiteSpace=wrap;html=1;arcSize=40;fontColor=#000000;fillColor=#ffffc0;strokeColor=#ff0000;" parent="Tlicw1NHRIB-_um3vUYq-1" vertex="1">
          <mxGeometry x="360" y="480" width="120" height="40" as="geometry" />
        </mxCell>
        <mxCell id="wTOdMPcLrnVWkFZVqrNw-1" value="" style="edgeStyle=orthogonalEdgeStyle;html=1;verticalAlign=bottom;endArrow=open;endSize=8;strokeColor=#ff0000;" parent="Tlicw1NHRIB-_um3vUYq-1" source="wTOdMPcLrnVWkFZVqrNw-0" edge="1">
          <mxGeometry relative="1" as="geometry">
            <mxPoint x="420" y="560" as="targetPoint" />
          </mxGeometry>
        </mxCell>
        <mxCell id="f2d3dEtJIyL3bd-HPDhZ-2" value="放入消息队列" style="rounded=1;whiteSpace=wrap;html=1;arcSize=40;fontColor=#000000;fillColor=#ffffc0;strokeColor=#ff0000;" parent="Tlicw1NHRIB-_um3vUYq-1" vertex="1">
          <mxGeometry x="360" y="260" width="120" height="40" as="geometry" />
        </mxCell>
        <mxCell id="f2d3dEtJIyL3bd-HPDhZ-3" value="" style="edgeStyle=orthogonalEdgeStyle;html=1;verticalAlign=bottom;endArrow=open;endSize=8;strokeColor=#ff0000;" parent="Tlicw1NHRIB-_um3vUYq-1" source="f2d3dEtJIyL3bd-HPDhZ-2" edge="1">
          <mxGeometry relative="1" as="geometry">
            <mxPoint x="420" y="330" as="targetPoint" />
          </mxGeometry>
        </mxCell>
        <mxCell id="pCCrhWVzIGZN3tYD4Si3-0" value="" style="curved=1;endArrow=classic;html=1;exitX=0;exitY=1;exitDx=0;exitDy=0;entryX=0;entryY=0.5;entryDx=0;entryDy=0;" parent="Tlicw1NHRIB-_um3vUYq-1" source="Tlicw1NHRIB-_um3vUYq-47" target="Tlicw1NHRIB-_um3vUYq-26" edge="1">
          <mxGeometry width="50" height="50" relative="1" as="geometry">
            <mxPoint x="190" y="1010" as="sourcePoint" />
            <mxPoint x="260" y="640" as="targetPoint" />
            <Array as="points">
              <mxPoint x="240" y="1010" />
              <mxPoint x="190" y="960" />
            </Array>
          </mxGeometry>
        </mxCell>
        <mxCell id="pCCrhWVzIGZN3tYD4Si3-1" value="失败" style="edgeLabel;html=1;align=center;verticalAlign=middle;resizable=0;points=[];" parent="pCCrhWVzIGZN3tYD4Si3-0" vertex="1" connectable="0">
          <mxGeometry x="-0.4961" y="-6" relative="1" as="geometry">
            <mxPoint as="offset" />
          </mxGeometry>
        </mxCell>
        <mxCell id="67G2TMx_A6V60h_aeA8p-4" value="判断待分账金额是否为0" style="rhombus;whiteSpace=wrap;html=1;fillColor=#ffffc0;strokeColor=#ff0000;" vertex="1" parent="Tlicw1NHRIB-_um3vUYq-1">
          <mxGeometry x="380" y="560" width="80" height="50" as="geometry" />
        </mxCell>
        <mxCell id="67G2TMx_A6V60h_aeA8p-6" value="判断分账金额是否为0" style="rhombus;whiteSpace=wrap;html=1;fillColor=#ffffc0;strokeColor=#ff0000;" vertex="1" parent="Tlicw1NHRIB-_um3vUYq-1">
          <mxGeometry x="384" y="700" width="70" height="40" as="geometry" />
        </mxCell>
        <mxCell id="67G2TMx_A6V60h_aeA8p-7" value="" style="endArrow=classic;html=1;" edge="1" parent="Tlicw1NHRIB-_um3vUYq-1" source="67G2TMx_A6V60h_aeA8p-6" target="Tlicw1NHRIB-_um3vUYq-26">
          <mxGeometry width="50" height="50" relative="1" as="geometry">
            <mxPoint x="390" y="780" as="sourcePoint" />
            <mxPoint x="440" y="730" as="targetPoint" />
          </mxGeometry>
        </mxCell>
        <mxCell id="67G2TMx_A6V60h_aeA8p-9" value="" style="endArrow=classic;html=1;exitX=1;exitY=0.5;exitDx=0;exitDy=0;" edge="1" parent="Tlicw1NHRIB-_um3vUYq-1" source="67G2TMx_A6V60h_aeA8p-6" target="Tlicw1NHRIB-_um3vUYq-24">
          <mxGeometry width="50" height="50" relative="1" as="geometry">
            <mxPoint x="480" y="740" as="sourcePoint" />
            <mxPoint x="530" y="690" as="targetPoint" />
            <Array as="points">
              <mxPoint x="580" y="720" />
            </Array>
          </mxGeometry>
        </mxCell>
        <mxCell id="67G2TMx_A6V60h_aeA8p-10" value="是" style="edgeLabel;html=1;align=center;verticalAlign=middle;resizable=0;points=[];" vertex="1" connectable="0" parent="67G2TMx_A6V60h_aeA8p-9">
          <mxGeometry x="-0.4432" y="3" relative="1" as="geometry">
            <mxPoint y="-1" as="offset" />
          </mxGeometry>
        </mxCell>
        <mxCell id="67G2TMx_A6V60h_aeA8p-11" value="" style="endArrow=classic;html=1;exitX=1;exitY=0.5;exitDx=0;exitDy=0;entryX=0.5;entryY=0;entryDx=0;entryDy=0;" edge="1" parent="Tlicw1NHRIB-_um3vUYq-1" source="67G2TMx_A6V60h_aeA8p-4" target="Tlicw1NHRIB-_um3vUYq-20">
          <mxGeometry width="50" height="50" relative="1" as="geometry">
            <mxPoint x="480" y="590" as="sourcePoint" />
            <mxPoint x="660" y="1150" as="targetPoint" />
            <Array as="points">
              <mxPoint x="725" y="580" />
            </Array>
          </mxGeometry>
        </mxCell>
        <mxCell id="67G2TMx_A6V60h_aeA8p-12" value="是" style="edgeLabel;html=1;align=center;verticalAlign=middle;resizable=0;points=[];" vertex="1" connectable="0" parent="67G2TMx_A6V60h_aeA8p-11">
          <mxGeometry x="-0.8975" y="3" relative="1" as="geometry">
            <mxPoint as="offset" />
          </mxGeometry>
        </mxCell>
        <mxCell id="67G2TMx_A6V60h_aeA8p-13" value="" style="endArrow=classic;html=1;" edge="1" parent="Tlicw1NHRIB-_um3vUYq-1">
          <mxGeometry width="50" height="50" relative="1" as="geometry">
            <mxPoint x="419.5" y="610" as="sourcePoint" />
            <mxPoint x="420" y="630" as="targetPoint" />
          </mxGeometry>
        </mxCell>
      </root>
    </mxGraphModel>
  </diagram>
  <diagram id="zsEkwDjHGGd9jtOy_SmI" name="分账回退">
    <mxGraphModel dx="1550" dy="2037" grid="1" gridSize="10" guides="1" tooltips="1" connect="1" arrows="1" fold="1" page="1" pageScale="1" pageWidth="827" pageHeight="1169" math="0" shadow="0">
      <root>
        <mxCell id="dvIHO36HrtYh0-wClwWB-0" />
        <mxCell id="dvIHO36HrtYh0-wClwWB-1" parent="dvIHO36HrtYh0-wClwWB-0" />
        <mxCell id="dvIHO36HrtYh0-wClwWB-2" value="" style="ellipse;html=1;shape=startState;fillColor=#000000;strokeColor=#ff0000;" parent="dvIHO36HrtYh0-wClwWB-1" vertex="1">
          <mxGeometry x="185" y="-150" width="30" height="30" as="geometry" />
        </mxCell>
        <mxCell id="dvIHO36HrtYh0-wClwWB-4" value="申请退款" style="rounded=1;whiteSpace=wrap;html=1;arcSize=40;fontColor=#000000;fillColor=#ffffc0;strokeColor=#ff0000;" parent="dvIHO36HrtYh0-wClwWB-1" vertex="1">
          <mxGeometry x="140" y="-50" width="120" height="40" as="geometry" />
        </mxCell>
        <mxCell id="dvIHO36HrtYh0-wClwWB-5" value="" style="edgeStyle=orthogonalEdgeStyle;html=1;verticalAlign=bottom;endArrow=open;endSize=8;strokeColor=#ff0000;" parent="dvIHO36HrtYh0-wClwWB-1" source="dvIHO36HrtYh0-wClwWB-4" edge="1" target="N-hptHQ6A37XJjP2x8AQ-1">
          <mxGeometry relative="1" as="geometry">
            <mxPoint x="210" y="170" as="targetPoint" />
          </mxGeometry>
        </mxCell>
        <mxCell id="dvIHO36HrtYh0-wClwWB-8" value="判断是否存在分账订单" style="rhombus;whiteSpace=wrap;html=1;fillColor=#ffffc0;strokeColor=#ff0000;" parent="dvIHO36HrtYh0-wClwWB-1" vertex="1">
          <mxGeometry x="160" y="240" width="80" height="40" as="geometry" />
        </mxCell>
        <mxCell id="dvIHO36HrtYh0-wClwWB-9" value="no" style="edgeStyle=orthogonalEdgeStyle;html=1;align=left;verticalAlign=bottom;endArrow=open;endSize=8;strokeColor=#ff0000;entryX=1;entryY=0.5;entryDx=0;entryDy=0;" parent="dvIHO36HrtYh0-wClwWB-1" source="dvIHO36HrtYh0-wClwWB-8" edge="1">
          <mxGeometry x="-1" relative="1" as="geometry">
            <mxPoint x="260" y="1060" as="targetPoint" />
            <Array as="points">
              <mxPoint x="530" y="260" />
              <mxPoint x="530" y="1060" />
            </Array>
          </mxGeometry>
        </mxCell>
        <mxCell id="dvIHO36HrtYh0-wClwWB-10" value="yes" style="edgeStyle=orthogonalEdgeStyle;html=1;align=left;verticalAlign=top;endArrow=open;endSize=8;strokeColor=#ff0000;" parent="dvIHO36HrtYh0-wClwWB-1" source="dvIHO36HrtYh0-wClwWB-8" edge="1">
          <mxGeometry x="-1" relative="1" as="geometry">
            <mxPoint x="200" y="340" as="targetPoint" />
          </mxGeometry>
        </mxCell>
        <mxCell id="dvIHO36HrtYh0-wClwWB-18" value="判断是否是全部退款" style="rhombus;whiteSpace=wrap;html=1;fillColor=#ffffc0;strokeColor=#ff0000;" parent="dvIHO36HrtYh0-wClwWB-1" vertex="1">
          <mxGeometry x="160" y="340" width="80" height="40" as="geometry" />
        </mxCell>
        <mxCell id="dvIHO36HrtYh0-wClwWB-19" value="no" style="edgeStyle=orthogonalEdgeStyle;html=1;align=left;verticalAlign=bottom;endArrow=open;endSize=8;strokeColor=#ff0000;" parent="dvIHO36HrtYh0-wClwWB-1" source="dvIHO36HrtYh0-wClwWB-18" edge="1">
          <mxGeometry x="-1" relative="1" as="geometry">
            <mxPoint x="340" y="360" as="targetPoint" />
          </mxGeometry>
        </mxCell>
        <mxCell id="dvIHO36HrtYh0-wClwWB-20" value="yes" style="edgeStyle=orthogonalEdgeStyle;html=1;align=left;verticalAlign=top;endArrow=open;endSize=8;strokeColor=#ff0000;" parent="dvIHO36HrtYh0-wClwWB-1" source="dvIHO36HrtYh0-wClwWB-18" edge="1">
          <mxGeometry x="-1" relative="1" as="geometry">
            <mxPoint x="200" y="440" as="targetPoint" />
          </mxGeometry>
        </mxCell>
        <mxCell id="dvIHO36HrtYh0-wClwWB-21" value="商户分账金额回退" style="rounded=1;whiteSpace=wrap;html=1;arcSize=40;fontColor=#000000;fillColor=#ffffc0;strokeColor=#ff0000;" parent="dvIHO36HrtYh0-wClwWB-1" vertex="1">
          <mxGeometry x="140" y="440" width="120" height="40" as="geometry" />
        </mxCell>
        <mxCell id="dvIHO36HrtYh0-wClwWB-22" value="" style="edgeStyle=orthogonalEdgeStyle;html=1;verticalAlign=bottom;endArrow=open;endSize=8;strokeColor=#ff0000;" parent="dvIHO36HrtYh0-wClwWB-1" source="dvIHO36HrtYh0-wClwWB-21" edge="1">
          <mxGeometry relative="1" as="geometry">
            <mxPoint x="200" y="540" as="targetPoint" />
          </mxGeometry>
        </mxCell>
        <mxCell id="dvIHO36HrtYh0-wClwWB-23" value="保存分账回退表" style="rounded=1;whiteSpace=wrap;html=1;arcSize=40;fontColor=#000000;fillColor=#ffffc0;strokeColor=#ff0000;" parent="dvIHO36HrtYh0-wClwWB-1" vertex="1">
          <mxGeometry x="140" y="640" width="120" height="40" as="geometry" />
        </mxCell>
        <mxCell id="dvIHO36HrtYh0-wClwWB-24" value="" style="edgeStyle=orthogonalEdgeStyle;html=1;verticalAlign=bottom;endArrow=open;endSize=8;strokeColor=#ff0000;" parent="dvIHO36HrtYh0-wClwWB-1" source="dvIHO36HrtYh0-wClwWB-23" edge="1">
          <mxGeometry relative="1" as="geometry">
            <mxPoint x="200" y="740" as="targetPoint" />
          </mxGeometry>
        </mxCell>
        <mxCell id="dvIHO36HrtYh0-wClwWB-28" value="判断是否成功" style="rhombus;whiteSpace=wrap;html=1;fillColor=#ffffc0;strokeColor=#ff0000;" parent="dvIHO36HrtYh0-wClwWB-1" vertex="1">
          <mxGeometry x="160" y="540" width="80" height="40" as="geometry" />
        </mxCell>
        <mxCell id="dvIHO36HrtYh0-wClwWB-29" value="no" style="edgeStyle=orthogonalEdgeStyle;html=1;align=left;verticalAlign=bottom;endArrow=open;endSize=8;strokeColor=#ff0000;entryX=1;entryY=0.5;entryDx=0;entryDy=0;" parent="dvIHO36HrtYh0-wClwWB-1" source="dvIHO36HrtYh0-wClwWB-28" target="dvIHO36HrtYh0-wClwWB-21" edge="1">
          <mxGeometry x="-1" relative="1" as="geometry">
            <mxPoint x="340" y="560" as="targetPoint" />
          </mxGeometry>
        </mxCell>
        <mxCell id="dvIHO36HrtYh0-wClwWB-30" value="yes" style="edgeStyle=orthogonalEdgeStyle;html=1;align=left;verticalAlign=top;endArrow=open;endSize=8;strokeColor=#ff0000;" parent="dvIHO36HrtYh0-wClwWB-1" source="dvIHO36HrtYh0-wClwWB-28" edge="1">
          <mxGeometry x="-1" relative="1" as="geometry">
            <mxPoint x="200" y="640" as="targetPoint" />
          </mxGeometry>
        </mxCell>
        <mxCell id="dvIHO36HrtYh0-wClwWB-34" value="查询回退结果" style="rounded=1;whiteSpace=wrap;html=1;arcSize=40;fontColor=#000000;fillColor=#ffffc0;strokeColor=#ff0000;" parent="dvIHO36HrtYh0-wClwWB-1" vertex="1">
          <mxGeometry x="140" y="740" width="120" height="40" as="geometry" />
        </mxCell>
        <mxCell id="dvIHO36HrtYh0-wClwWB-35" value="" style="edgeStyle=orthogonalEdgeStyle;html=1;verticalAlign=bottom;endArrow=open;endSize=8;strokeColor=#ff0000;" parent="dvIHO36HrtYh0-wClwWB-1" source="dvIHO36HrtYh0-wClwWB-34" edge="1">
          <mxGeometry relative="1" as="geometry">
            <mxPoint x="200" y="840" as="targetPoint" />
          </mxGeometry>
        </mxCell>
        <mxCell id="dvIHO36HrtYh0-wClwWB-44" value="是否调用成功" style="rhombus;whiteSpace=wrap;html=1;fillColor=#ffffc0;strokeColor=#ff0000;" parent="dvIHO36HrtYh0-wClwWB-1" vertex="1">
          <mxGeometry x="160" y="840" width="80" height="40" as="geometry" />
        </mxCell>
        <mxCell id="dvIHO36HrtYh0-wClwWB-45" value="no" style="edgeStyle=orthogonalEdgeStyle;html=1;align=left;verticalAlign=bottom;endArrow=open;endSize=8;strokeColor=#ff0000;entryX=1;entryY=0.75;entryDx=0;entryDy=0;" parent="dvIHO36HrtYh0-wClwWB-1" source="dvIHO36HrtYh0-wClwWB-44" target="dvIHO36HrtYh0-wClwWB-34" edge="1">
          <mxGeometry x="-1" relative="1" as="geometry">
            <mxPoint x="340" y="860" as="targetPoint" />
          </mxGeometry>
        </mxCell>
        <mxCell id="dvIHO36HrtYh0-wClwWB-46" value="yes" style="edgeStyle=orthogonalEdgeStyle;html=1;align=left;verticalAlign=top;endArrow=open;endSize=8;strokeColor=#ff0000;" parent="dvIHO36HrtYh0-wClwWB-1" source="dvIHO36HrtYh0-wClwWB-44" edge="1">
          <mxGeometry x="-1" relative="1" as="geometry">
            <mxPoint x="200" y="940" as="targetPoint" />
          </mxGeometry>
        </mxCell>
        <mxCell id="dvIHO36HrtYh0-wClwWB-47" value="更改分账回退表状态" style="rounded=1;whiteSpace=wrap;html=1;arcSize=40;fontColor=#000000;fillColor=#ffffc0;strokeColor=#ff0000;" parent="dvIHO36HrtYh0-wClwWB-1" vertex="1">
          <mxGeometry x="140" y="940" width="120" height="40" as="geometry" />
        </mxCell>
        <mxCell id="dvIHO36HrtYh0-wClwWB-48" value="" style="edgeStyle=orthogonalEdgeStyle;html=1;verticalAlign=bottom;endArrow=open;endSize=8;strokeColor=#ff0000;" parent="dvIHO36HrtYh0-wClwWB-1" source="dvIHO36HrtYh0-wClwWB-47" edge="1">
          <mxGeometry relative="1" as="geometry">
            <mxPoint x="200" y="1040" as="targetPoint" />
          </mxGeometry>
        </mxCell>
        <mxCell id="dvIHO36HrtYh0-wClwWB-50" value="" style="edgeStyle=orthogonalEdgeStyle;html=1;verticalAlign=bottom;endArrow=open;endSize=8;strokeColor=#ff0000;" parent="dvIHO36HrtYh0-wClwWB-1" edge="1">
          <mxGeometry relative="1" as="geometry">
            <mxPoint x="200" y="1125" as="targetPoint" />
            <mxPoint x="200" y="1080" as="sourcePoint" />
          </mxGeometry>
        </mxCell>
        <mxCell id="ARn9OEBSkVmGEJ_NYpEs-12" style="edgeStyle=orthogonalEdgeStyle;rounded=0;orthogonalLoop=1;jettySize=auto;html=1;entryX=0.5;entryY=0;entryDx=0;entryDy=0;" parent="dvIHO36HrtYh0-wClwWB-1" source="dvIHO36HrtYh0-wClwWB-51" target="ARn9OEBSkVmGEJ_NYpEs-8" edge="1">
          <mxGeometry relative="1" as="geometry" />
        </mxCell>
        <mxCell id="dvIHO36HrtYh0-wClwWB-51" value="计算此订单已退款的金额和已回退的金额" style="rounded=1;whiteSpace=wrap;html=1;arcSize=40;fontColor=#000000;fillColor=#ffffc0;strokeColor=#ff0000;" parent="dvIHO36HrtYh0-wClwWB-1" vertex="1">
          <mxGeometry x="340" y="340" width="120" height="40" as="geometry" />
        </mxCell>
        <mxCell id="ARn9OEBSkVmGEJ_NYpEs-5" value="" style="ellipse;html=1;shape=endState;fillColor=#000000;strokeColor=#ff0000;" parent="dvIHO36HrtYh0-wClwWB-1" vertex="1">
          <mxGeometry x="185" y="1120" width="30" height="30" as="geometry" />
        </mxCell>
        <mxCell id="ARn9OEBSkVmGEJ_NYpEs-8" value="判断已退款金额比例和和回退的比例是否相同" style="rhombus;whiteSpace=wrap;html=1;fillColor=#ffffc0;strokeColor=#ff0000;" parent="dvIHO36HrtYh0-wClwWB-1" vertex="1">
          <mxGeometry x="360" y="440" width="80" height="40" as="geometry" />
        </mxCell>
        <mxCell id="ARn9OEBSkVmGEJ_NYpEs-9" value="yes" style="edgeStyle=orthogonalEdgeStyle;html=1;align=left;verticalAlign=bottom;endArrow=open;endSize=8;strokeColor=#ff0000;entryX=1;entryY=0.5;entryDx=0;entryDy=0;" parent="dvIHO36HrtYh0-wClwWB-1" source="ARn9OEBSkVmGEJ_NYpEs-8" target="dvIHO36HrtYh0-wClwWB-21" edge="1">
          <mxGeometry x="-1" relative="1" as="geometry">
            <mxPoint x="320" y="510" as="targetPoint" />
          </mxGeometry>
        </mxCell>
        <mxCell id="ARn9OEBSkVmGEJ_NYpEs-10" value="no" style="edgeStyle=orthogonalEdgeStyle;html=1;align=left;verticalAlign=top;endArrow=open;endSize=8;strokeColor=#ff0000;entryX=1;entryY=0.25;entryDx=0;entryDy=0;" parent="dvIHO36HrtYh0-wClwWB-1" source="ARn9OEBSkVmGEJ_NYpEs-8" edge="1">
          <mxGeometry x="-1" y="16" relative="1" as="geometry">
            <mxPoint x="260" y="1050" as="targetPoint" />
            <Array as="points">
              <mxPoint x="400" y="1050" />
            </Array>
            <mxPoint as="offset" />
          </mxGeometry>
        </mxCell>
        <mxCell id="N-hptHQ6A37XJjP2x8AQ-11" value="" style="edgeStyle=orthogonalEdgeStyle;rounded=0;orthogonalLoop=1;jettySize=auto;html=1;" edge="1" parent="dvIHO36HrtYh0-wClwWB-1" source="N-hptHQ6A37XJjP2x8AQ-1" target="N-hptHQ6A37XJjP2x8AQ-9">
          <mxGeometry relative="1" as="geometry" />
        </mxCell>
        <mxCell id="N-hptHQ6A37XJjP2x8AQ-1" value="判断是否退款成功" style="rhombus;whiteSpace=wrap;html=1;fillColor=#ffffc0;strokeColor=#ff0000;" vertex="1" parent="dvIHO36HrtYh0-wClwWB-1">
          <mxGeometry x="160" y="40" width="80" height="40" as="geometry" />
        </mxCell>
        <mxCell id="N-hptHQ6A37XJjP2x8AQ-4" value="" style="endArrow=classic;html=1;exitX=0.5;exitY=1;exitDx=0;exitDy=0;" edge="1" parent="dvIHO36HrtYh0-wClwWB-1" source="dvIHO36HrtYh0-wClwWB-2" target="dvIHO36HrtYh0-wClwWB-4">
          <mxGeometry width="50" height="50" relative="1" as="geometry">
            <mxPoint x="370" y="90" as="sourcePoint" />
            <mxPoint x="420" y="40" as="targetPoint" />
          </mxGeometry>
        </mxCell>
        <mxCell id="N-hptHQ6A37XJjP2x8AQ-9" value="判断是否有分账设置" style="rhombus;whiteSpace=wrap;html=1;fillColor=#ffffc0;strokeColor=#ff0000;" vertex="1" parent="dvIHO36HrtYh0-wClwWB-1">
          <mxGeometry x="160" y="120" width="80" height="40" as="geometry" />
        </mxCell>
        <mxCell id="N-hptHQ6A37XJjP2x8AQ-10" value="" style="endArrow=classic;html=1;" edge="1" parent="dvIHO36HrtYh0-wClwWB-1" source="N-hptHQ6A37XJjP2x8AQ-1" target="N-hptHQ6A37XJjP2x8AQ-9">
          <mxGeometry width="50" height="50" relative="1" as="geometry">
            <mxPoint x="380" y="70" as="sourcePoint" />
            <mxPoint x="430" y="20" as="targetPoint" />
            <Array as="points">
              <mxPoint x="200" y="100" />
            </Array>
          </mxGeometry>
        </mxCell>
        <mxCell id="N-hptHQ6A37XJjP2x8AQ-12" value="yes" style="text;html=1;strokeColor=none;fillColor=none;align=center;verticalAlign=middle;whiteSpace=wrap;rounded=0;" vertex="1" parent="dvIHO36HrtYh0-wClwWB-1">
          <mxGeometry x="160" y="80" width="40" height="20" as="geometry" />
        </mxCell>
        <mxCell id="N-hptHQ6A37XJjP2x8AQ-13" value="" style="endArrow=classic;html=1;entryX=1;entryY=0.5;entryDx=0;entryDy=0;" edge="1" parent="dvIHO36HrtYh0-wClwWB-1" source="N-hptHQ6A37XJjP2x8AQ-9" target="N-hptHQ6A37XJjP2x8AQ-14">
          <mxGeometry width="50" height="50" relative="1" as="geometry">
            <mxPoint x="390" y="170" as="sourcePoint" />
            <mxPoint x="200" y="210" as="targetPoint" />
          </mxGeometry>
        </mxCell>
        <mxCell id="N-hptHQ6A37XJjP2x8AQ-21" style="edgeStyle=orthogonalEdgeStyle;rounded=0;orthogonalLoop=1;jettySize=auto;html=1;" edge="1" parent="dvIHO36HrtYh0-wClwWB-1">
          <mxGeometry relative="1" as="geometry">
            <mxPoint x="180" y="170" as="targetPoint" />
            <mxPoint x="180" y="170" as="sourcePoint" />
          </mxGeometry>
        </mxCell>
        <mxCell id="N-hptHQ6A37XJjP2x8AQ-24" style="edgeStyle=orthogonalEdgeStyle;rounded=0;orthogonalLoop=1;jettySize=auto;html=1;exitX=1;exitY=0.25;exitDx=0;exitDy=0;entryX=0;entryY=0.5;entryDx=0;entryDy=0;" edge="1" parent="dvIHO36HrtYh0-wClwWB-1" source="N-hptHQ6A37XJjP2x8AQ-14" target="N-hptHQ6A37XJjP2x8AQ-19">
          <mxGeometry relative="1" as="geometry" />
        </mxCell>
        <mxCell id="N-hptHQ6A37XJjP2x8AQ-14" value="yes" style="text;html=1;strokeColor=none;fillColor=none;align=center;verticalAlign=middle;whiteSpace=wrap;rounded=0;" vertex="1" parent="dvIHO36HrtYh0-wClwWB-1">
          <mxGeometry x="160" y="180" width="40" height="20" as="geometry" />
        </mxCell>
        <mxCell id="N-hptHQ6A37XJjP2x8AQ-15" value="" style="endArrow=classic;html=1;exitX=1;exitY=0.5;exitDx=0;exitDy=0;" edge="1" parent="dvIHO36HrtYh0-wClwWB-1" source="N-hptHQ6A37XJjP2x8AQ-9">
          <mxGeometry width="50" height="50" relative="1" as="geometry">
            <mxPoint x="560" y="190" as="sourcePoint" />
            <mxPoint x="640" y="140" as="targetPoint" />
          </mxGeometry>
        </mxCell>
        <mxCell id="N-hptHQ6A37XJjP2x8AQ-20" value="no" style="edgeLabel;html=1;align=center;verticalAlign=middle;resizable=0;points=[];" vertex="1" connectable="0" parent="N-hptHQ6A37XJjP2x8AQ-15">
          <mxGeometry x="-0.628" y="1" relative="1" as="geometry">
            <mxPoint as="offset" />
          </mxGeometry>
        </mxCell>
        <mxCell id="N-hptHQ6A37XJjP2x8AQ-16" value="" style="endArrow=classic;html=1;entryX=1;entryY=0.5;entryDx=0;entryDy=0;" edge="1" parent="dvIHO36HrtYh0-wClwWB-1" target="ARn9OEBSkVmGEJ_NYpEs-5">
          <mxGeometry width="50" height="50" relative="1" as="geometry">
            <mxPoint x="240" y="60" as="sourcePoint" />
            <mxPoint x="620" y="1140" as="targetPoint" />
            <Array as="points">
              <mxPoint x="640" y="60" />
              <mxPoint x="630" y="1135" />
            </Array>
          </mxGeometry>
        </mxCell>
        <mxCell id="N-hptHQ6A37XJjP2x8AQ-18" value="no" style="edgeLabel;html=1;align=center;verticalAlign=middle;resizable=0;points=[];" vertex="1" connectable="0" parent="N-hptHQ6A37XJjP2x8AQ-16">
          <mxGeometry x="-0.9678" y="-3" relative="1" as="geometry">
            <mxPoint as="offset" />
          </mxGeometry>
        </mxCell>
        <mxCell id="N-hptHQ6A37XJjP2x8AQ-19" value="推入消息队列" style="rounded=1;whiteSpace=wrap;html=1;arcSize=40;fontColor=#000000;fillColor=#ffffc0;strokeColor=#ff0000;" vertex="1" parent="dvIHO36HrtYh0-wClwWB-1">
          <mxGeometry x="270" y="170" width="120" height="40" as="geometry" />
        </mxCell>
        <mxCell id="N-hptHQ6A37XJjP2x8AQ-27" value="" style="endArrow=none;dashed=1;html=1;dashPattern=1 3;strokeWidth=2;" edge="1" parent="dvIHO36HrtYh0-wClwWB-1" source="dvIHO36HrtYh0-wClwWB-8" target="N-hptHQ6A37XJjP2x8AQ-19">
          <mxGeometry width="50" height="50" relative="1" as="geometry">
            <mxPoint x="450" y="230" as="sourcePoint" />
            <mxPoint x="500" y="180" as="targetPoint" />
          </mxGeometry>
        </mxCell>
        <mxCell id="N-hptHQ6A37XJjP2x8AQ-28" value="结束" style="rounded=1;whiteSpace=wrap;html=1;arcSize=40;fontColor=#000000;fillColor=#ffffc0;strokeColor=#ff0000;" vertex="1" parent="dvIHO36HrtYh0-wClwWB-1">
          <mxGeometry x="140" y="1040" width="120" height="40" as="geometry" />
        </mxCell>
      </root>
    </mxGraphModel>
  </diagram>
  <diagram id="VCkXuKGbKdHdXE72Sk0r" name="分账人添加设置">
    <mxGraphModel dx="1550" dy="868" grid="1" gridSize="10" guides="1" tooltips="1" connect="1" arrows="1" fold="1" page="1" pageScale="1" pageWidth="827" pageHeight="1169" math="0" shadow="0">
      <root>
        <mxCell id="IjOOzcN3V5JjPeskBSoS-0" />
        <mxCell id="IjOOzcN3V5JjPeskBSoS-1" parent="IjOOzcN3V5JjPeskBSoS-0" />
        <mxCell id="IjOOzcN3V5JjPeskBSoS-2" value="" style="ellipse;html=1;shape=startState;fillColor=#000000;strokeColor=#ff0000;" vertex="1" parent="IjOOzcN3V5JjPeskBSoS-1">
          <mxGeometry x="160" y="40" width="30" height="30" as="geometry" />
        </mxCell>
        <mxCell id="IjOOzcN3V5JjPeskBSoS-3" value="" style="edgeStyle=orthogonalEdgeStyle;html=1;verticalAlign=bottom;endArrow=open;endSize=8;strokeColor=#ff0000;" edge="1" source="IjOOzcN3V5JjPeskBSoS-2" parent="IjOOzcN3V5JjPeskBSoS-1">
          <mxGeometry relative="1" as="geometry">
            <mxPoint x="175" y="130" as="targetPoint" />
          </mxGeometry>
        </mxCell>
        <mxCell id="IjOOzcN3V5JjPeskBSoS-4" value="选择门店分账人二维码" style="rounded=1;whiteSpace=wrap;html=1;arcSize=40;fontColor=#000000;fillColor=#ffffc0;strokeColor=#ff0000;" vertex="1" parent="IjOOzcN3V5JjPeskBSoS-1">
          <mxGeometry x="120" y="130" width="120" height="40" as="geometry" />
        </mxCell>
        <mxCell id="IjOOzcN3V5JjPeskBSoS-5" value="" style="edgeStyle=orthogonalEdgeStyle;html=1;verticalAlign=bottom;endArrow=open;endSize=8;strokeColor=#ff0000;" edge="1" source="IjOOzcN3V5JjPeskBSoS-4" parent="IjOOzcN3V5JjPeskBSoS-1">
          <mxGeometry relative="1" as="geometry">
            <mxPoint x="180" y="230" as="targetPoint" />
          </mxGeometry>
        </mxCell>
        <mxCell id="IjOOzcN3V5JjPeskBSoS-6" value="用户扫码绑定申请成为分账人" style="rounded=1;whiteSpace=wrap;html=1;arcSize=40;fontColor=#000000;fillColor=#ffffc0;strokeColor=#ff0000;" vertex="1" parent="IjOOzcN3V5JjPeskBSoS-1">
          <mxGeometry x="120" y="230" width="120" height="40" as="geometry" />
        </mxCell>
        <mxCell id="IjOOzcN3V5JjPeskBSoS-7" value="" style="edgeStyle=orthogonalEdgeStyle;html=1;verticalAlign=bottom;endArrow=open;endSize=8;strokeColor=#ff0000;" edge="1" source="IjOOzcN3V5JjPeskBSoS-6" parent="IjOOzcN3V5JjPeskBSoS-1">
          <mxGeometry relative="1" as="geometry">
            <mxPoint x="180" y="330" as="targetPoint" />
          </mxGeometry>
        </mxCell>
        <mxCell id="IjOOzcN3V5JjPeskBSoS-8" value="商户查看申请人列表" style="rounded=1;whiteSpace=wrap;html=1;arcSize=40;fontColor=#000000;fillColor=#ffffc0;strokeColor=#ff0000;" vertex="1" parent="IjOOzcN3V5JjPeskBSoS-1">
          <mxGeometry x="120" y="330" width="120" height="40" as="geometry" />
        </mxCell>
        <mxCell id="IjOOzcN3V5JjPeskBSoS-9" value="" style="edgeStyle=orthogonalEdgeStyle;html=1;verticalAlign=bottom;endArrow=open;endSize=8;strokeColor=#ff0000;" edge="1" source="IjOOzcN3V5JjPeskBSoS-8" parent="IjOOzcN3V5JjPeskBSoS-1">
          <mxGeometry relative="1" as="geometry">
            <mxPoint x="180" y="430" as="targetPoint" />
          </mxGeometry>
        </mxCell>
        <mxCell id="IjOOzcN3V5JjPeskBSoS-10" value="商户填写分账人姓名等信息" style="rounded=1;whiteSpace=wrap;html=1;arcSize=40;fontColor=#000000;fillColor=#ffffc0;strokeColor=#ff0000;" vertex="1" parent="IjOOzcN3V5JjPeskBSoS-1">
          <mxGeometry x="120" y="430" width="120" height="40" as="geometry" />
        </mxCell>
        <mxCell id="IjOOzcN3V5JjPeskBSoS-11" value="" style="edgeStyle=orthogonalEdgeStyle;html=1;verticalAlign=bottom;endArrow=open;endSize=8;strokeColor=#ff0000;" edge="1" source="IjOOzcN3V5JjPeskBSoS-10" parent="IjOOzcN3V5JjPeskBSoS-1">
          <mxGeometry relative="1" as="geometry">
            <mxPoint x="180" y="530" as="targetPoint" />
          </mxGeometry>
        </mxCell>
        <mxCell id="IjOOzcN3V5JjPeskBSoS-12" value="保存门店分账人" style="rounded=1;whiteSpace=wrap;html=1;arcSize=40;fontColor=#000000;fillColor=#ffffc0;strokeColor=#ff0000;" vertex="1" parent="IjOOzcN3V5JjPeskBSoS-1">
          <mxGeometry x="120" y="535" width="120" height="40" as="geometry" />
        </mxCell>
        <mxCell id="IjOOzcN3V5JjPeskBSoS-13" value="" style="edgeStyle=orthogonalEdgeStyle;html=1;verticalAlign=bottom;endArrow=open;endSize=8;strokeColor=#ff0000;" edge="1" source="IjOOzcN3V5JjPeskBSoS-12" parent="IjOOzcN3V5JjPeskBSoS-1">
          <mxGeometry relative="1" as="geometry">
            <mxPoint x="180" y="635" as="targetPoint" />
          </mxGeometry>
        </mxCell>
        <mxCell id="IjOOzcN3V5JjPeskBSoS-14" value="判断此门店是否存在分账人" style="rhombus;whiteSpace=wrap;html=1;fillColor=#ffffc0;strokeColor=#ff0000;" vertex="1" parent="IjOOzcN3V5JjPeskBSoS-1">
          <mxGeometry x="140" y="630" width="80" height="40" as="geometry" />
        </mxCell>
        <mxCell id="IjOOzcN3V5JjPeskBSoS-15" value="no" style="edgeStyle=orthogonalEdgeStyle;html=1;align=left;verticalAlign=bottom;endArrow=open;endSize=8;strokeColor=#ff0000;" edge="1" source="IjOOzcN3V5JjPeskBSoS-14" parent="IjOOzcN3V5JjPeskBSoS-1">
          <mxGeometry x="-0.6" y="10" relative="1" as="geometry">
            <mxPoint x="320" y="650" as="targetPoint" />
            <mxPoint as="offset" />
          </mxGeometry>
        </mxCell>
        <mxCell id="IjOOzcN3V5JjPeskBSoS-16" value="yes" style="edgeStyle=orthogonalEdgeStyle;html=1;align=left;verticalAlign=top;endArrow=open;endSize=8;strokeColor=#ff0000;" edge="1" source="IjOOzcN3V5JjPeskBSoS-14" parent="IjOOzcN3V5JjPeskBSoS-1">
          <mxGeometry x="-0.6667" y="10" relative="1" as="geometry">
            <mxPoint x="180" y="730" as="targetPoint" />
            <mxPoint as="offset" />
          </mxGeometry>
        </mxCell>
        <mxCell id="IjOOzcN3V5JjPeskBSoS-17" value="调用微信添加分账人" style="rounded=1;whiteSpace=wrap;html=1;arcSize=40;fontColor=#000000;fillColor=#ffffc0;strokeColor=#ff0000;" vertex="1" parent="IjOOzcN3V5JjPeskBSoS-1">
          <mxGeometry x="320" y="630" width="120" height="40" as="geometry" />
        </mxCell>
        <mxCell id="IjOOzcN3V5JjPeskBSoS-18" value="" style="edgeStyle=orthogonalEdgeStyle;html=1;verticalAlign=bottom;endArrow=open;endSize=8;strokeColor=#ff0000;" edge="1" source="IjOOzcN3V5JjPeskBSoS-17" parent="IjOOzcN3V5JjPeskBSoS-1">
          <mxGeometry relative="1" as="geometry">
            <mxPoint x="380" y="730" as="targetPoint" />
          </mxGeometry>
        </mxCell>
        <mxCell id="IjOOzcN3V5JjPeskBSoS-19" value="" style="ellipse;html=1;shape=endState;fillColor=#000000;strokeColor=#ff0000;" vertex="1" parent="IjOOzcN3V5JjPeskBSoS-1">
          <mxGeometry x="270" y="910" width="30" height="30" as="geometry" />
        </mxCell>
        <mxCell id="IjOOzcN3V5JjPeskBSoS-20" value="返回提示信息，返回失败" style="rounded=1;whiteSpace=wrap;html=1;arcSize=40;fontColor=#000000;fillColor=#ffffc0;strokeColor=#ff0000;" vertex="1" parent="IjOOzcN3V5JjPeskBSoS-1">
          <mxGeometry x="120" y="730" width="120" height="40" as="geometry" />
        </mxCell>
        <mxCell id="IjOOzcN3V5JjPeskBSoS-21" value="" style="edgeStyle=orthogonalEdgeStyle;html=1;verticalAlign=bottom;endArrow=open;endSize=8;strokeColor=#ff0000;" edge="1" source="IjOOzcN3V5JjPeskBSoS-20" parent="IjOOzcN3V5JjPeskBSoS-1">
          <mxGeometry relative="1" as="geometry">
            <mxPoint x="180" y="830" as="targetPoint" />
          </mxGeometry>
        </mxCell>
        <mxCell id="IjOOzcN3V5JjPeskBSoS-22" value="保存分账人信息" style="rounded=1;whiteSpace=wrap;html=1;arcSize=40;fontColor=#000000;fillColor=#ffffc0;strokeColor=#ff0000;" vertex="1" parent="IjOOzcN3V5JjPeskBSoS-1">
          <mxGeometry x="320" y="730" width="120" height="40" as="geometry" />
        </mxCell>
        <mxCell id="IjOOzcN3V5JjPeskBSoS-23" value="" style="edgeStyle=orthogonalEdgeStyle;html=1;verticalAlign=bottom;endArrow=open;endSize=8;strokeColor=#ff0000;" edge="1" source="IjOOzcN3V5JjPeskBSoS-22" parent="IjOOzcN3V5JjPeskBSoS-1">
          <mxGeometry relative="1" as="geometry">
            <mxPoint x="380" y="830" as="targetPoint" />
          </mxGeometry>
        </mxCell>
        <mxCell id="IjOOzcN3V5JjPeskBSoS-24" value="" style="shape=line;html=1;strokeWidth=6;strokeColor=#ff0000;" vertex="1" parent="IjOOzcN3V5JjPeskBSoS-1">
          <mxGeometry x="170" y="830" width="230" height="10" as="geometry" />
        </mxCell>
        <mxCell id="IjOOzcN3V5JjPeskBSoS-25" value="" style="edgeStyle=orthogonalEdgeStyle;html=1;verticalAlign=bottom;endArrow=open;endSize=8;strokeColor=#ff0000;" edge="1" source="IjOOzcN3V5JjPeskBSoS-24" parent="IjOOzcN3V5JjPeskBSoS-1">
          <mxGeometry relative="1" as="geometry">
            <mxPoint x="285" y="910" as="targetPoint" />
          </mxGeometry>
        </mxCell>
      </root>
    </mxGraphModel>
  </diagram>
  <diagram id="lcvQpS8iKNTHIbeeFo5N" name="分账人删除设置">
    <mxGraphModel dx="1550" dy="868" grid="1" gridSize="10" guides="1" tooltips="1" connect="1" arrows="1" fold="1" page="1" pageScale="1" pageWidth="827" pageHeight="1169" math="0" shadow="0">
      <root>
        <mxCell id="mP-5PO4ATawqGLhZFRf7-0" />
        <mxCell id="mP-5PO4ATawqGLhZFRf7-1" parent="mP-5PO4ATawqGLhZFRf7-0" />
        <mxCell id="mP-5PO4ATawqGLhZFRf7-4" value="" style="ellipse;html=1;shape=startState;fillColor=#000000;strokeColor=#ff0000;" vertex="1" parent="mP-5PO4ATawqGLhZFRf7-1">
          <mxGeometry x="160" y="40" width="30" height="30" as="geometry" />
        </mxCell>
        <mxCell id="mP-5PO4ATawqGLhZFRf7-5" value="" style="edgeStyle=orthogonalEdgeStyle;html=1;verticalAlign=bottom;endArrow=open;endSize=8;strokeColor=#ff0000;" edge="1" source="mP-5PO4ATawqGLhZFRf7-4" parent="mP-5PO4ATawqGLhZFRf7-1">
          <mxGeometry relative="1" as="geometry">
            <mxPoint x="175" y="130" as="targetPoint" />
          </mxGeometry>
        </mxCell>
        <mxCell id="mP-5PO4ATawqGLhZFRf7-8" value="停用分账人" style="rounded=1;whiteSpace=wrap;html=1;arcSize=40;fontColor=#000000;fillColor=#ffffc0;strokeColor=#ff0000;" vertex="1" parent="mP-5PO4ATawqGLhZFRf7-1">
          <mxGeometry x="115" y="130" width="120" height="40" as="geometry" />
        </mxCell>
        <mxCell id="mP-5PO4ATawqGLhZFRf7-9" value="" style="edgeStyle=orthogonalEdgeStyle;html=1;verticalAlign=bottom;endArrow=open;endSize=8;strokeColor=#ff0000;" edge="1" source="mP-5PO4ATawqGLhZFRf7-8" parent="mP-5PO4ATawqGLhZFRf7-1">
          <mxGeometry relative="1" as="geometry">
            <mxPoint x="175" y="230" as="targetPoint" />
          </mxGeometry>
        </mxCell>
        <mxCell id="mP-5PO4ATawqGLhZFRf7-10" value="分账人设置删除" style="rounded=1;whiteSpace=wrap;html=1;arcSize=40;fontColor=#000000;fillColor=#ffffc0;strokeColor=#ff0000;" vertex="1" parent="mP-5PO4ATawqGLhZFRf7-1">
          <mxGeometry x="115" y="330" width="120" height="40" as="geometry" />
        </mxCell>
        <mxCell id="mP-5PO4ATawqGLhZFRf7-11" value="" style="edgeStyle=orthogonalEdgeStyle;html=1;verticalAlign=bottom;endArrow=open;endSize=8;strokeColor=#ff0000;" edge="1" source="mP-5PO4ATawqGLhZFRf7-10" parent="mP-5PO4ATawqGLhZFRf7-1">
          <mxGeometry relative="1" as="geometry">
            <mxPoint x="175" y="430" as="targetPoint" />
          </mxGeometry>
        </mxCell>
        <mxCell id="mP-5PO4ATawqGLhZFRf7-12" value="调用分账人删除接口" style="rounded=1;whiteSpace=wrap;html=1;arcSize=40;fontColor=#000000;fillColor=#ffffc0;strokeColor=#ff0000;" vertex="1" parent="mP-5PO4ATawqGLhZFRf7-1">
          <mxGeometry x="115" y="230" width="120" height="40" as="geometry" />
        </mxCell>
        <mxCell id="mP-5PO4ATawqGLhZFRf7-13" value="" style="edgeStyle=orthogonalEdgeStyle;html=1;verticalAlign=bottom;endArrow=open;endSize=8;strokeColor=#ff0000;" edge="1" source="mP-5PO4ATawqGLhZFRf7-12" parent="mP-5PO4ATawqGLhZFRf7-1">
          <mxGeometry relative="1" as="geometry">
            <mxPoint x="175" y="330" as="targetPoint" />
          </mxGeometry>
        </mxCell>
        <mxCell id="mP-5PO4ATawqGLhZFRf7-14" value="门店分账人停用标记设置为0" style="rounded=1;whiteSpace=wrap;html=1;arcSize=40;fontColor=#000000;fillColor=#ffffc0;strokeColor=#ff0000;" vertex="1" parent="mP-5PO4ATawqGLhZFRf7-1">
          <mxGeometry x="115" y="430" width="120" height="40" as="geometry" />
        </mxCell>
        <mxCell id="mP-5PO4ATawqGLhZFRf7-15" value="" style="edgeStyle=orthogonalEdgeStyle;html=1;verticalAlign=bottom;endArrow=open;endSize=8;strokeColor=#ff0000;" edge="1" source="mP-5PO4ATawqGLhZFRf7-14" parent="mP-5PO4ATawqGLhZFRf7-1">
          <mxGeometry relative="1" as="geometry">
            <mxPoint x="175" y="530" as="targetPoint" />
          </mxGeometry>
        </mxCell>
        <mxCell id="mP-5PO4ATawqGLhZFRf7-16" value="" style="ellipse;html=1;shape=endState;fillColor=#000000;strokeColor=#ff0000;" vertex="1" parent="mP-5PO4ATawqGLhZFRf7-1">
          <mxGeometry x="160" y="530" width="30" height="30" as="geometry" />
        </mxCell>
      </root>
    </mxGraphModel>
  </diagram>
</mxfile>
